<mxfile host="app.diagrams.net" agent="Mozilla/5.0 (Macintosh; Intel Mac OS X 10_15_7) AppleWebKit/537.36 (KHTML, like Gecko) Chrome/129.0.0.0 Safari/537.36" version="24.8.0">
  <diagram name="第 1 页" id="0uYjYybCI2g9-7KeNyv9">
    <mxGraphModel dx="1026" dy="650" grid="1" gridSize="10" guides="1" tooltips="1" connect="1" arrows="1" fold="1" page="1" pageScale="1" pageWidth="827" pageHeight="1169" math="0" shadow="0">
      <root>
        <mxCell id="0" />
        <mxCell id="1" parent="0" />
        <mxCell id="SJUoSc_AAju23dNtTdAB-3" value="" style="edgeStyle=orthogonalEdgeStyle;rounded=0;orthogonalLoop=1;jettySize=auto;html=1;" edge="1" parent="1" source="SJUoSc_AAju23dNtTdAB-1">
          <mxGeometry relative="1" as="geometry">
            <mxPoint x="325" y="260" as="targetPoint" />
          </mxGeometry>
        </mxCell>
        <mxCell id="SJUoSc_AAju23dNtTdAB-1" value="标签审批列表查询" style="ellipse;whiteSpace=wrap;html=1;" vertex="1" parent="1">
          <mxGeometry x="260" y="130" width="130" height="60" as="geometry" />
        </mxCell>
        <mxCell id="SJUoSc_AAju23dNtTdAB-9" value="" style="edgeStyle=orthogonalEdgeStyle;rounded=0;orthogonalLoop=1;jettySize=auto;html=1;" edge="1" parent="1" source="SJUoSc_AAju23dNtTdAB-6" target="SJUoSc_AAju23dNtTdAB-8">
          <mxGeometry relative="1" as="geometry" />
        </mxCell>
        <mxCell id="SJUoSc_AAju23dNtTdAB-6" value="标签审批列表查询标签Name与&lt;div&gt;code&lt;/div&gt;" style="shape=process;whiteSpace=wrap;html=1;backgroundOutline=1;" vertex="1" parent="1">
          <mxGeometry x="265" y="260" width="120" height="60" as="geometry" />
        </mxCell>
        <mxCell id="SJUoSc_AAju23dNtTdAB-11" value="" style="edgeStyle=orthogonalEdgeStyle;rounded=0;orthogonalLoop=1;jettySize=auto;html=1;" edge="1" parent="1" source="SJUoSc_AAju23dNtTdAB-8" target="SJUoSc_AAju23dNtTdAB-10">
          <mxGeometry relative="1" as="geometry" />
        </mxCell>
        <mxCell id="SJUoSc_AAju23dNtTdAB-8" value="根据标签Code与参数查询标签基础信息表" style="shape=process;whiteSpace=wrap;html=1;backgroundOutline=1;" vertex="1" parent="1">
          <mxGeometry x="265" y="370" width="120" height="60" as="geometry" />
        </mxCell>
        <mxCell id="SJUoSc_AAju23dNtTdAB-10" value="数据封装返回" style="rounded=1;whiteSpace=wrap;html=1;" vertex="1" parent="1">
          <mxGeometry x="265" y="485" width="120" height="60" as="geometry" />
        </mxCell>
      </root>
    </mxGraphModel>
  </diagram>
</mxfile>
